<?xml version="1.0" encoding="UTF-8"?>
<svg width="898px" height="297px" viewBox="0 0 898 297" version="1.1" xmlns="http://www.w3.org/2000/svg" xmlns:xlink="http://www.w3.org/1999/xlink">
    <!-- Generator: Sketch 56.3 (81716) - https://sketch.com -->
    <title>volute-logo</title>
    <desc>Created with Sketch.</desc>
    <g id="Page-1" stroke="none" stroke-width="1" fill="none" fill-rule="evenodd">
        <g id="volute-logo" transform="translate(8.000000, 8.000000)">
            <g id="text" transform="translate(331.000000, 70.000000)" fill="#ADAFB2" fill-rule="nonzero">
                <path d="M104,36.2496293 C104,37.4773303 103.690949,38.6710297 103.082542,39.8246558 L59.237254,127.584029 C57.4689958,131.193057 55.0559718,133 51.9981821,133 C49.0058384,133 46.5940264,131.16027 44.7591101,127.488096 L0.917458135,39.8246558 C0.304203424,38.6710297 2.27373675e-13,37.4773303 2.27373675e-13,36.2496293 C2.27373675e-13,34.2787502 0.798685483,32.5725979 2.40696414,31.1421015 C4.00918297,29.7116052 5.83440351,29 7.8850497,29 C10.7501369,29 12.8674412,30.3855657 14.2333267,33.1591257 L51.9981821,108.750779 L89.7666733,33.1591257 C91.1289229,30.3855657 93.2801622,29 96.2155435,29 C98.1934717,29 99.9871811,29.7116052 101.5894,31.1421015 C103.196467,32.5725979 104,34.2787502 104,36.2496293" id="Fill-1"></path>
                <path d="M204.183971,80.9483904 C204.183971,70.7843373 200.547055,62.0556379 193.273224,54.7598636 C185.999393,47.4604463 177.240437,43.8137735 167,43.8137735 C156.752277,43.8137735 147.996964,47.4604463 140.723133,54.7598636 C133.449302,62.0556379 129.811172,70.7843373 129.811172,80.9483904 C129.811172,91.1755894 133.449302,99.9419334 140.723133,107.236493 C147.996964,114.537125 156.752277,118.185012 167,118.185012 C177.240437,118.185012 185.999393,114.537125 193.273224,107.236493 C200.547055,99.9419334 204.183971,91.1755894 204.183971,80.9483904 Z M219,80.9483904 C219,95.3298577 213.903461,107.603225 203.72374,117.761206 C193.544019,127.919188 181.302368,133 167,133 C152.697632,133 140.453552,127.919188 130.272617,117.761206 C120.088039,107.603225 115,95.3298577 115,80.9483904 C115,66.6312834 120.088039,54.3943463 130.272617,44.2351506 C140.453552,34.0783835 152.697632,29 167,29 C181.302368,29 193.544019,34.0783835 203.72374,44.2351506 C213.903461,54.3943463 219,66.6312834 219,80.9483904 L219,80.9483904 Z" id="Fill-2"></path>
                <path d="M271,125.496052 C271,130.496649 268.518633,133 263.558321,133 C255.469644,133 248.523512,130.070468 242.712653,124.206521 C236.903006,118.348679 234,111.308767 234,103.084342 L234,7.50150578 C234,2.50457241 236.477733,5.68434189e-14 241.440468,5.68434189e-14 C246.331718,5.68434189e-14 248.777949,2.50457241 248.777949,7.50639036 L248.777949,103.088005 C248.777949,107.202049 250.240356,110.733606 253.162748,113.682676 C256.082717,116.628083 259.546696,118.102007 263.558321,118.102007 C268.518633,118.102007 271,120.567503 271,125.496052" id="Fill-3"></path>
                <path d="M361,95.8775265 C361,106.104725 357.333317,114.847997 349.997495,122.10977 C342.662901,129.367899 333.830198,133 323.500614,133 C313.169802,133 304.335871,129.367899 297.002505,122.10977 C289.666683,114.847997 286,106.104725 286,95.8775265 L286,36.3625632 C286,31.4541877 288.51363,29 293.542119,29 C298.498158,29 300.977406,31.4541877 300.977406,36.3625632 L300.977406,95.8908843 C300.977406,102.024532 303.180362,107.275352 307.591188,111.639702 C311.997102,116.002837 317.303109,118.185012 323.500614,118.185012 C329.698119,118.185012 335.00167,116.002837 339.41004,111.639702 C343.815954,107.275352 346.018911,102.024532 346.018911,95.8908843 L346.018911,36.3625632 C346.018911,31.4541877 348.533769,29 353.562257,29 C358.520752,29 361,31.4541877 361,36.3625632 L361,95.8775265" id="Fill-4"></path>
                <path d="M451,118.409736 C451,123.478717 448.385546,127.313119 443.160317,129.915383 C439.032619,131.969352 434.1483,133 428.512263,133 C420.256867,133 413.192201,130.065584 407.310906,124.204078 C401.430837,118.342573 398.487737,111.295334 398.487737,103.070909 L398.487737,43.3140827 L383.531884,43.3140827 C378.507767,43.3140827 376,40.8119525 376,35.8101346 C376,30.877922 378.507767,28.4173109 383.531884,28.4173109 L398.487737,28.4173109 L398.487737,7.50028463 C398.487737,2.49968783 400.980788,5.68434189e-14 405.968116,5.68434189e-14 C410.955445,5.68434189e-14 413.449722,2.49968783 413.449722,7.50028463 L413.449722,28.4173109 L428.409254,28.4173109 C433.426014,28.4173109 435.937459,30.877922 435.937459,35.8101346 C435.937459,40.8119525 433.426014,43.3140827 428.409254,43.3140827 L413.449722,43.3140827 L413.449722,103.084342 C413.449722,107.194722 414.913914,110.727501 417.845978,113.675349 C420.774362,116.628083 424.310988,118.102007 428.449722,118.102007 C431.830608,118.102007 435.068018,116.867428 438.172989,114.405595 C441.275507,111.936436 443.551504,110.703078 445.000981,110.703078 C448.998692,110.703078 451,113.272371 451,118.409736" id="Fill-5"></path>
                <path d="M540.523154,56.4465864 C533.016208,48.0239015 523.655816,43.8137735 512.437074,43.8137735 C502.108281,43.8137735 493.279896,47.4653036 485.948243,54.7598636 C478.617815,62.059281 474.951376,70.790409 474.951376,80.9556765 C474.951376,85.050442 475.599837,89.009201 476.900436,92.8246675 L540.523154,56.4465864 Z M559,103.166015 C559,104.324498 558.656769,105.618988 557.969082,107.047056 C553.776764,114.883213 547.431899,121.165011 538.944293,125.896092 C530.45301,130.632031 521.633206,133 512.492236,133 C498.054481,133 485.694497,127.919188 475.417189,117.761206 C465.136203,107.603225 460,95.3298577 460,80.9483904 C460,66.6312834 465.136203,54.3943463 475.417189,44.2351506 C485.694497,34.0783835 498.054481,29 512.492236,29 C517.649278,29 523.045355,29.9532595 528.68292,31.8597784 C535.075592,34.0455963 541.332198,37.5234754 547.451512,42.2958444 C555.082266,48.2266969 558.897031,53.8223906 558.897031,59.0732109 C558.897031,61.7326226 557.6614,63.7447894 555.185236,65.1084969 L484.441705,105.615345 C491.865296,113.995528 501.214655,118.185012 512.492236,118.185012 C524.317761,118.185012 533.735767,113.929953 540.748706,105.411335 C541.63988,104.120489 543.067965,102.195754 545.026832,99.6432049 C546.985699,97.0894411 549.031599,95.8143806 551.163307,95.8143806 C553.227595,95.8143806 555.047943,96.5272001 556.630482,97.9589108 C558.209344,99.3869785 559,101.124704 559,103.166015 L559,103.166015 Z" id="Fill-6"></path>
            </g>
            <g id="spiral" stroke-linecap="round" stroke-width="16">
                <path d="M40.275,238.467 C8.91,186.167 25.877,118.344 78.174,86.982" id="Stroke-7" stroke="#EE549C"></path>
                <path d="M240.318,42.19 C271.685,94.49 254.712,162.316 202.416,193.678" id="Stroke-9" stroke="#82C34D"></path>
                <path d="M238.437,240.354 C186.134,271.719 118.316,254.75 86.951,202.449" id="Stroke-10" stroke="#FAAC31"></path>
                <path d="M42.158,40.304 C94.457,8.939 162.278,25.91 193.644,78.208" id="Stroke-11" stroke="#3E4096"></path>
                <path d="M138.965,280.451 C79.805,265.652 43.841,205.69 58.651,146.532" id="Stroke-12" stroke="#E44727"></path>
                <path d="M141.63,0.206 C200.784,15.009 236.751,74.967 221.949,134.127" id="Stroke-13" stroke="#39AEEF"></path>
                <path d="M280.42,141.664 C265.614,200.824 205.662,236.783 146.496,221.98" id="Stroke-14" stroke="#F9E322"></path>
                <path d="M0.175,138.994 C14.976,79.836 74.933,43.877 134.094,58.68" id="Stroke-16" stroke="#953A92"></path>
            </g>
        </g>
    </g>
</svg>